<?xml version="1.0" encoding="utf-8"?>
<!-- Generator: Adobe Illustrator 28.0.0, SVG Export Plug-In . SVG Version: 6.00 Build 0)  -->
<svg version="1.1" xmlns="http://www.w3.org/2000/svg" xmlns:xlink="http://www.w3.org/1999/xlink" x="0px" y="0px"
	 viewBox="0 0 300 300" style="enable-background:new 0 0 300 300;" xml:space="preserve">
<style type="text/css">
	.st0{fill:none;stroke:#ED1B64;stroke-width:10;stroke-linecap:round;stroke-linejoin:round;stroke-miterlimit:10;}
	.st1{fill:#FFFFFF;}
	.st2{fill:#626262;stroke:#ED1B64;stroke-miterlimit:10;}
	.st3{fill:#FFFFFF;stroke:#000000;stroke-miterlimit:10;}
	.st4{fill:#ED1B64;}
</style>
<g id="Layer_2">
</g>
<g id="Layer_1">
	<g>
		<path class="st4" d="M269.5,15.7c-11.4,0-22.9,0-34.3,0c-2,0-4,0.3-5.9,0.9c-3.1,0.9-4.6,2.7-4.7,5.9c-0.1,3.9-0.1,7.8,0,11.6
			c0.1,9.3,0.2,18.6,0.3,27.9c0,1.4-0.5,2.4-1.6,3.2c-4.2,2.8-8.4,5.5-12.7,8.4c-2.5-2.4-5-4.6-7.4-7c-0.6-0.5-0.9-1.4-1.1-2.1
			c-0.9-3.1-1.6-6.3-2.6-9.3c-9-25.5-31.9-33.9-49.7-33.9c-3.6,0-5.8,2.2-5.9,5.6c0,3.4,2.2,5.6,5.7,5.7c1.8,0.1,3.6,0.2,5.4,0.4
			c10,1.1,18.6,5.1,25.5,12.6c2.8,3,4.9,6.4,6.8,10.3c-26.1-10.5-51.7-10-76.9,3.2c0.2-0.6,0.3-0.9,0.4-1.3
			c2.5-6.7,6.6-12.1,12.2-16.4c1.4-1.1,2.9-2.2,4.1-3.5c1.9-1.9,2-4.4,0.5-6.7c-2-3-5.1-3.5-8.4-1.4c-4.7,3.1-8.8,6.8-12.2,11.2
			c-6,7.7-9.2,16.6-10.6,26.1c-0.4,2.9-2,4.8-4.3,6.4c-4.1-2.7-8.1-5.5-12.2-8.2c-1.5-1-2-2.2-2-3.9c0.1-9.8,0.2-19.6,0.3-29.4
			c0-3.1,0.1-6.2-0.1-9.3c-0.1-2-0.6-4.2-2.6-5.1c-1.9-0.9-4.1-1.8-6.2-1.9c-11.9-0.2-23.8-0.1-35.7-0.1c-4.1,0-7.5,2.9-6.4,7.6
			c2.5,10.6,4.8,21.3,7.5,31.9c2.4,9.8,4.2,19.6,4.3,29.7c0.1,8.5-0.1,16.9-0.1,25.4c0,1.9,0,3.8,0.2,5.7c0.7,5.4,2.7,10.5,5.6,15.1
			c3.2,5.1,6.8,10,10.2,14.9c0.9,1.2,1.4,2.5,1.2,4.1c-0.4,3.6-0.1,7.1,1.1,10.5c2,6.1,6.1,10.7,11,14.6c4.2,3.3,8.9,5.2,14.3,4.8
			c1.6-0.1,2.7,0.6,3.5,2c7.4,13,17.3,23.5,30.2,31.1c3.7,2.2,5.1,5,4.2,9.3c-0.9,4.2-2.1,8.1-5.4,11.1c-2.5,2.3-5.4,3.9-8.6,5
			c-5.1,1.7-10.2,3.4-15.4,5c-8.5,2.8-15.2,7.9-19.6,15.7c-2.1,3.6-2.7,7.5-1.8,11.5c1.8,7.7,8.5,13,16.4,13
			c5.4,0,10.9-0.2,16.3-0.2c20.7,0,41.3,0,62,0c0.5,0,1,0,1.6,0c2.8-0.3,4.9-2.4,5.1-5.1c0.2-3-1.4-5.3-4.2-6
			c-0.9-0.2-1.8-0.3-2.7-0.3c-25.8,0-51.6,0-77.3,0c-0.8,0-1.5,0-2.3-0.1c-2.1-0.3-3.8-2-3.8-4.1c0-1.1,0.5-2.4,1.1-3.3
			c3.4-5.4,8.5-8.8,14.4-11c6.3-2.3,12.8-4.4,19.1-6.8c8.3-3.2,13.6-9.1,15.6-17.9c0.5-2.4,0.8-4.8,1.2-7.3
			c13.4,4.2,26.9,4.2,40.4,0c0.1,1,0.2,1.9,0.2,2.8c0.7,11,5.8,18.9,16,23.4c6.6,2.9,13.4,5.4,20,8.2c4.6,1.9,8.7,4.7,11.9,8.6
			c2.3,2.8,1.3,6.2-2.2,7.3c-0.8,0.3-1.7,0.4-2.5,0.6c-3.8,1.1-5.3,4.8-3.3,8.2c1.3,2.3,3.5,3.3,6,3c9-0.9,16-8.9,14.5-18.5
			c-0.7-4.9-3.6-8.5-7-11.8c-4.6-4.5-10.2-7.3-16.2-9.4c-5.2-1.9-10.5-3.7-15.6-5.8c-4.4-1.9-7.8-5-8.7-10c-0.7-3.6-0.8-7.4-1.3-11
			c-0.3-1.9,0.5-2.9,2-3.7c6.9-3.9,13-8.9,18.4-14.6c4.8-5.1,8.9-10.7,12.4-16.7c0.8-1.4,1.8-1.9,3.4-1.9c1.5,0,3.1,0,4.6-0.4
			c7.9-2,13.5-7,17.7-13.8c2.9-4.8,4.4-10.1,3.6-15.8c-0.2-1.8,0.4-3.2,1.6-4.4c4.9-5.4,8.8-11.4,11.6-18.2
			c3.2-7.9,4.3-16.2,4.2-24.6c0-7.9-0.1-15.8-0.1-23.7c0-2.7,0.2-5.5,0.7-8.2c2.2-10.2,4.6-20.4,6.9-30.6c1.4-5.9,2.8-11.8,4-17.7
			C276.3,19,273.3,15.7,269.5,15.7z M201.5,80.9c-1.4,1.7-2.8,3.3-4,5c-1.9,2.7-3.1,5.7-2.5,9.1c0.8,4.5,4,6.9,8.2,7.7
			c2.9,0.6,6,0.5,9,0.5c2.4,0,2.6,0.1,3.2,2.4c1.1,4.6,2.2,9.1,3.2,13.7c0.1,0.4-0.1,0.8-0.1,1.2c-0.4-0.1-1,0-1.3-0.2
			c-11.7-6.8-22.8-14.4-32.7-23.7C174,86.8,165.7,75.4,160,62.1c-0.2-0.5-0.4-1-0.7-1.7C175.9,62.2,190.1,68.7,201.5,80.9z
			 M106.6,88.2c-1.1-2.1-2.6-3.9-4-5.8c-0.3-0.5-0.6-0.9-1.1-1.4c11.4-12.4,25.6-18.5,42.3-20.5c-1.4,3-2.6,5.7-4,8.3
			c-7.6,14.7-18.5,26.5-31.5,36.6c-7.1,5.5-14.6,10.4-22.4,14.9c-0.4,0.2-0.9,0.2-1.4,0.3c0-0.4-0.1-0.9,0-1.3
			c1-4.9,2.1-9.8,3.2-14.6c0.1-0.4,0.2-0.7,0.4-1.3c2.3,0,4.6,0.2,6.9-0.1c2.3-0.2,4.6-0.6,6.8-1.4
			C107.6,99.6,109.6,93.7,106.6,88.2z M62.5,137c-4.6-6.5-9.5-12.9-11.4-20.9c-0.8-3.5-0.8-7-0.7-10.6c0.4-11.1,0.3-22.3-0.5-33.4
			c-0.3-4.1-1.5-8.1-2.4-12.1c-2.3-10.1-4.7-20.3-7-30.4c-0.1-0.7-0.2-1.3-0.3-2.1h26.3v1.4c0,12.2,0,24.4-0.1,36.6
			c0,3.3,1.3,5.7,4,7.6C77.6,78,84.6,83,91.7,87.9c1.3,0.9,2.7,1.8,4,2.6c-0.3,1.2-0.9,1.6-2.1,1.4c-2.4-0.3-4.9-0.5-7.4-0.8
			c-3.8-0.5-5.4,0.4-6.9,3.9c-2.9,6.8-4.8,13.9-5.8,21.2c-0.5,3.9-0.6,7.9-0.9,11.8c-0.1,1.8-0.8,3.1-2.3,4
			C67.7,133.6,65.2,135.3,62.5,137z M232.9,160.5c-3.1,5.8-8.7,8.6-15.3,7.6c-0.5-0.1-1-0.1-1.6-0.2c-2.9-0.3-4.9,1-6.3,3.5
			c-1.6,2.9-3.1,5.9-4.9,8.8c-11,17.2-26.8,27.2-46.9,30.6c-13.1,2.2-25.2-1-36.4-7.9c-12.1-7.5-21.2-17.7-27.7-30.3
			c-0.1-0.2-0.2-0.4-0.3-0.6c-1.9-3.7-3.8-4.6-7.9-3.9c-9.9,1.7-18.8-6.2-17.9-16.2c0.4-4.6,3.1-7.6,7.3-9.2
			c1.6-0.6,3.3-0.9,4.9-1.5c2.7-0.8,3.9-2.4,4-5.2c0-1.6,1-2.3,2.2-3c5.9-3.5,12-6.8,17.7-10.5c12.3-8.1,23.4-17.6,33-28.9
			c5.4-6.4,10-13.2,13.7-20.6c0.2-0.3,0.3-0.6,0.6-1.2c1.8,2.7,3.4,5.2,5,7.8c11.5,18.6,27.1,32.9,45.4,44.5
			c4.6,2.9,9.3,5.6,14.1,8.2c2.2,1.2,3.8,2.6,3.7,5.4c0,1.7,1.4,2.6,2.9,3.2c1.4,0.5,2.9,0.8,4.4,1.3c5.4,1.7,8.3,5.2,8.3,10.1
			C234.9,155.2,234.3,158,232.9,160.5z M260.9,35.3c-2.7,11.9-5.5,23.7-8.1,35.6c-0.5,2.3-0.4,4.8-0.4,7.3
			c-0.1,9.2-0.1,18.4-0.2,27.6c-0.1,3.4-0.1,6.8-0.6,10.1c-0.3,2.1-1,4.3-2,6.1c-2.9,5.1-6,10.1-9.1,15.1c-3.1-1.8-5.9-3.5-8.8-5.1
			c-1.2-0.7-1.5-1.8-1.5-3.1c0-7-0.7-13.9-2.4-20.6c-1.2-4.5-2.7-8.9-4.3-13.3c-1.2-3.2-2.5-4.1-6-4c-2.5,0.1-5,0.5-7.5,0.7
			c-0.7,0-1.4,0-2.4,0c0.8-0.7,1.2-1.2,1.8-1.7c7.4-5.6,14.8-11.3,22.3-16.9c3.2-2.4,4.9-5.4,4.7-9.4c-0.2-5.1-0.2-10.2-0.2-15.3
			c-0.1-6.5-0.1-13-0.1-19.5c0-0.4,0.1-0.8,0.1-1.3h26.5C262.1,30.2,261.5,32.7,260.9,35.3z"/>
		<path class="st4" d="M167.7,184.8c-0.5,0.6-1.2,1.2-1.9,1.6c-4.4,2.9-9.8,4.4-15.1,4.4c-5.5,0-10.4-1.6-14.6-5.2
			c-3.2-2.7-2.7-7.4,1-9.4c2.1-1.1,4-0.6,6,0.5c1.8,1,3.7,1.9,5.6,2.5c3.4,0.9,6.6-0.2,9.7-1.7c1-0.5,2-1.2,3.1-1.5
			c2.4-0.9,4.8,0,6.3,2.3C169.4,180.3,169.4,182.8,167.7,184.8z"/>
		<path class="st4" d="M140.7,126.9c-0.5,2.3-1.9,3.9-4.2,4.7c-1.8,0.5-3.4,0-4.8-1c-2.8-1.9-5.8-3-9.2-2.6
			c-2.5,0.2-4.8,1.2-6.9,2.4c-0.5,0.3-1,0.6-1.5,0.8c-3.9,1.8-8.1-1-8.1-5.3c0-2.1,1.1-3.6,2.8-4.7c4.5-2.9,9.4-4.4,14.8-4.6
			c5.6-0.2,10.5,1.5,14.9,4.9C140.2,122.8,141.2,124.6,140.7,126.9z"/>
		<path class="st4" d="M192.9,131c-1.4,0.6-2.8,0.8-4.3,0.1c-1.2-0.6-2.5-1.1-3.7-1.7c-4.8-2.3-9.4-2.1-13.9,0.7
			c-0.6,0.4-1.2,0.8-1.9,1.1c-2.5,1.1-5.1,0.4-6.8-1.9c-1.6-2.1-1.6-4.3,0.2-6.6c2.6-3.2,6.2-4.8,10.2-5.7c1.9-0.4,3.9-0.5,5.8-0.8
			c5.7,0.2,10.8,1.7,15.3,5.2C197.2,124.2,196.6,129.4,192.9,131z"/>
		<path class="st4" d="M194.1,147.3c-3.9,4.6-9.6,7.4-13.9,7.4c-6.1-0.1-10.6-1.9-14.4-5.2c-2.3-2.1-2.5-5.2-0.4-7.7
			c2-2.5,4.8-2.9,7.4-1.1c4.6,3.2,9,2.8,13.1-1.1c2.3-2.2,5.4-2.2,7.8,0C196,141.8,196.2,144.9,194.1,147.3z"/>
		<path class="st4" d="M136.9,149.8c-3.8,3.2-8.1,4.8-13.3,5c-4.9-0.2-9.2-2.1-12.9-5.6c-0.6-0.5-1.1-1.1-1.6-1.6
			c-2.1-2.2-2.2-5.2-0.3-7.4c2.1-2.4,5.1-2.9,7.6-1.2c1,0.6,1.8,1.4,2.7,2.1c2.7,2.2,5.6,2.5,8.7,0.8c0.9-0.5,1.8-0.9,2.6-1.4
			c2.9-1.5,5.7-0.8,7.5,1.8C139.8,144.9,139.4,147.7,136.9,149.8z"/>
	</g>
</g>
</svg>
