<?xml version="1.0" encoding="utf-8"?>
<!-- Generator: Adobe Illustrator 28.0.0, SVG Export Plug-In . SVG Version: 6.00 Build 0)  -->
<svg version="1.1" xmlns="http://www.w3.org/2000/svg" xmlns:xlink="http://www.w3.org/1999/xlink" x="0px" y="0px"
	 viewBox="0 0 300 300" style="enable-background:new 0 0 300 300;" xml:space="preserve">
<style type="text/css">
	.st0{fill:none;stroke:#ED1B64;stroke-width:10;stroke-linecap:round;stroke-linejoin:round;stroke-miterlimit:10;}
	.st1{fill:#FFFFFF;}
	.st2{fill:#626262;stroke:#ED1B64;stroke-miterlimit:10;}
	.st3{fill:#FFFFFF;stroke:#000000;stroke-miterlimit:10;}
	.st4{fill:#ED1B64;}
</style>
<g id="Layer_2">
</g>
<g id="Layer_1">
	<g>
		<path class="st0" d="M230.3,160.4c0.2,30.9-1.6,62.4-17.7,88.2c-17.4,27.9-36.9,43.2-59.2,43.2c-22.5,0-43.2-13.6-63.3-44.3
			c-17.4-26.5-17.6-59-16-89.2c13.6-31.8,38.9-52.8,74.6-64.3C184.9,104.1,212.4,125.8,230.3,160.4z"/>
		<path class="st0" d="M174.2,43.6c0,0,71.5,33,78.6,68.8s1.4,64-22.5,78"/>
		<path class="st0" d="M73.5,184.9c0,0-82.8-87.2,36.3-149.8"/>
		<path class="st0" d="M244.4,94.8c-10.1-53.9-44.6-83.6-105.5-87.2c-24.8,10.8-36.5,31.7-31,60.9c2.2,11.6,18.3,19.5,40.7,25.5"/>
		<g>
			<path class="st0" d="M101.5,158.2c15.8-6.7,28.5-5.9,37.1,5.3"/>
			<path class="st0" d="M101.5,181.1c8.3,10.2,20.4,12.5,37.1,5"/>
		</g>
		<g>
			<path class="st0" d="M203.1,158.2c-15.8-6.7-28.5-5.9-37.1,5.3"/>
			<path class="st0" d="M203.1,181.1c-8.3,10.2-20.4,12.5-37.1,5"/>
		</g>
		<path class="st0" d="M129.7,232c15,13.2,30.3,12.7,45.8,0"/>
		<path class="st0" d="M63.2,212.6c-12,0-21.8,9.8-21.8,21.8c0-12-9.8-21.8-21.8-21.8c12,0,21.8-9.8,21.8-21.8
			C41.4,202.9,51.2,212.6,63.2,212.6z"/>
		<path class="st0" d="M272.1,256.2c-12,0-21.8,9.8-21.8,21.8c0-12-9.8-21.8-21.8-21.8c12,0,21.8-9.8,21.8-21.8
			C250.3,246.5,260,256.2,272.1,256.2z"/>
	</g>
</g>
</svg>
