<?xml version="1.0" encoding="utf-8"?>
<!-- Generator: Adobe Illustrator 28.0.0, SVG Export Plug-In . SVG Version: 6.00 Build 0)  -->
<svg version="1.1" xmlns="http://www.w3.org/2000/svg" xmlns:xlink="http://www.w3.org/1999/xlink" x="0px" y="0px"
	 viewBox="0 0 300 300" style="enable-background:new 0 0 300 300;" xml:space="preserve">
<style type="text/css">
	.st0{fill:none;stroke:#ED1B64;stroke-width:10;stroke-linecap:round;stroke-linejoin:round;stroke-miterlimit:10;}
	.st1{fill:#FFFFFF;}
	.st2{fill:#626262;stroke:#ED1B64;stroke-miterlimit:10;}
	.st3{fill:#FFFFFF;stroke:#000000;stroke-miterlimit:10;}
	.st4{fill:#ED1B64;}
</style>
<g id="Layer_2">
</g>
<g id="Layer_1">
	<g>
		<path class="st0" d="M19.7,284V170.5c0-23.9,19.4-43.3,43.3-43.3h0c23.9,0,43.3,19.4,43.3,43.3V284V107.8
			c0-23.7,19.2-42.9,42.9-42.9h0c23.7,0,42.9,19.2,42.9,42.9V284V158.8c0-24.3,19.7-44.1,44.1-44.1h0c24.3,0,44.1,19.7,44.1,44.1
			V284"/>
		<path class="st0" d="M64.7,126.9L64.7,126.9c-11.4,0-20.7,9.3-20.7,20.7v49.2h41.4v-49.2C85.4,136.1,76.2,126.9,64.7,126.9z"/>
		<path class="st0" d="M235.7,114.5L235.7,114.5c-11.4,0-20.7,9.3-20.7,20.7v49.2h41.4v-49.2C256.4,123.8,247.1,114.5,235.7,114.5z"
			/>
		<path class="st0" d="M149.8,64.9L149.8,64.9c-11.7,0-21.2,9.5-21.2,21.2v50.4H171V86.2C171,74.4,161.5,64.9,149.8,64.9z"/>
		<g>
			<line class="st0" x1="132.2" y1="171.2" x2="168.6" y2="171.2"/>
			<line class="st0" x1="140.5" y1="198" x2="159.1" y2="198"/>
		</g>
		<g>
			<line class="st0" x1="46.5" y1="231.9" x2="82.9" y2="231.9"/>
			<line class="st0" x1="54.8" y1="258.6" x2="73.4" y2="258.6"/>
		</g>
		<g>
			<line class="st0" x1="217.5" y1="214.2" x2="253.9" y2="214.2"/>
			<line class="st0" x1="225.8" y1="241" x2="244.4" y2="241"/>
		</g>
		<path class="st0" d="M249.8,46.9c-17,0-30.9,13.8-30.9,30.9c0-17-13.8-30.9-30.9-30.9c17,0,30.9-13.8,30.9-30.9
			C219,33,232.8,46.9,249.8,46.9z"/>
		<path class="st0" d="M103.4,64.9c-17,0-30.9,13.8-30.9,30.9c0-17-13.8-30.9-30.9-30.9c17,0,30.9-13.8,30.9-30.9
			C72.6,51.1,86.4,64.9,103.4,64.9z"/>
	</g>
</g>
</svg>
