<?xml version="1.0" encoding="utf-8"?>
<!-- Generator: Adobe Illustrator 28.0.0, SVG Export Plug-In . SVG Version: 6.00 Build 0)  -->
<svg version="1.1" xmlns="http://www.w3.org/2000/svg" xmlns:xlink="http://www.w3.org/1999/xlink" x="0px" y="0px"
	 viewBox="0 0 300 300" style="enable-background:new 0 0 300 300;" xml:space="preserve">
<style type="text/css">
	.st0{fill:none;stroke:#ED1B64;stroke-width:10;stroke-linecap:round;stroke-linejoin:round;stroke-miterlimit:10;}
	.st1{fill:#FFFFFF;}
	.st2{fill:#626262;stroke:#ED1B64;stroke-miterlimit:10;}
	.st3{fill:#FFFFFF;stroke:#000000;stroke-miterlimit:10;}
	.st4{fill:#ED1B64;}
</style>
<g id="Layer_2">
</g>
<g id="Layer_1">
	<g>
		<path class="st0" d="M75,122c0,0-6.2,57.2-14.3,74.2c-5.9,12.4-16,25.1-11.7,36.9c3.9,10.8,12.5,18.1,26,18.1
			c11.5,0,22.4-6.9,26-17.3c4.1-12.1-3.8-22.4-11.7-39.9C81.7,177.2,75,122,75,122z"/>
		<path class="st0" d="M224.1,22.3c0,0-6.2,57.2-14.3,74.2c-5.9,12.4-16,25.1-11.7,36.9c3.9,10.8,12.5,18.1,26,18.1
			c11.5,0,22.4-6.9,26-17.3c4.1-12.1-3.8-22.4-11.7-39.9C230.8,77.5,224.1,22.3,224.1,22.3z"/>
		<path class="st0" d="M64,186.6H15.8v100h269.8v-100h-48.2c0,0,1.9,14.1,8.7,22c6.8,7.9,5.7,42.6-19.6,42.6s-35.3-26.5-27.5-36.9
			c8.4-11.2,13.6-27.5,12.1-27.7l-124.3,0"/>
		<line class="st0" x1="15.8" y1="219.2" x2="48.5" y2="219.2"/>
		<line class="st0" x1="100.8" y1="219.2" x2="197" y2="219.2"/>
		<line class="st0" x1="249.4" y1="219.2" x2="285.6" y2="219.2"/>
		<g>
			<line class="st0" x1="181.6" y1="67.3" x2="181.6" y2="28.1"/>
			<path class="st0" d="M164.4,41.2c0.8-0.1,17.3-17.3,17.3-17.3l17.3,17.3"/>
		</g>
		<g>
			<line class="st0" x1="267.3" y1="67.3" x2="267.3" y2="28.1"/>
			<path class="st0" d="M250.2,41.2c0.8-0.1,17.3-17.3,17.3-17.3l17.3,17.3"/>
		</g>
	</g>
</g>
</svg>
