<?xml version="1.0" encoding="utf-8"?>
<!-- Generator: Adobe Illustrator 28.0.0, SVG Export Plug-In . SVG Version: 6.00 Build 0)  -->
<svg version="1.1" xmlns="http://www.w3.org/2000/svg" xmlns:xlink="http://www.w3.org/1999/xlink" x="0px" y="0px"
	 viewBox="0 0 300 300" style="enable-background:new 0 0 300 300;" xml:space="preserve">
<style type="text/css">
	.st0{fill:none;stroke:#ED1B64;stroke-width:10;stroke-linecap:round;stroke-linejoin:round;stroke-miterlimit:10;}
	.st1{fill:#FFFFFF;}
	.st2{fill:#626262;stroke:#ED1B64;stroke-miterlimit:10;}
	.st3{fill:#FFFFFF;stroke:#000000;stroke-miterlimit:10;}
	.st4{fill:#ED1B64;}
</style>
<g id="Layer_2">
</g>
<g id="Layer_1">
	<g>
		<ellipse class="st0" cx="40.7" cy="96.2" rx="22.1" ry="26.4"/>
		<ellipse class="st0" cx="40.7" cy="256.5" rx="22.1" ry="26.4"/>
		<line class="st0" x1="30" y1="119.3" x2="30" y2="233.4"/>
		<line class="st0" x1="52.2" y1="119.3" x2="52.2" y2="233.4"/>
		<path class="st0" d="M92.1,80.7L81.9,22.9c0,0,11.6-8.2,28.9-8.2s27.6,9.5,27.6,9.5l-10.2,56.5v186.7c0,9.9-8,17.9-17.9,17.9h0
			c-9.9,0-17.9-8-17.9-17.9L92.1,80.7z"/>
		<line class="st0" x1="91.7" y1="78.7" x2="128.6" y2="78.7"/>
		<line class="st0" x1="91.7" y1="121.2" x2="128.6" y2="121.2"/>
		<path class="st0" d="M201.7,159.4l-38.6-72.1c-5.7-10.7-1.5-24,9.4-29.3l37.1-18.4c8.3-4.1,18-4.1,26.3,0L276.9,60
			c10.8,5.4,15.1,18.7,9.3,29.3l-37.6,70v100.6c0,12.7-10.3,22.9-22.9,22.9h0c-12.6,0-22.8-10.1-22.9-22.7L201.7,159.4z"/>
		<line class="st0" x1="201.7" y1="159.4" x2="248.7" y2="159.4"/>
		<line class="st0" x1="201.7" y1="193.7" x2="248.7" y2="193.7"/>
		<line class="st0" x1="216.6" y1="159.4" x2="210.2" y2="119.3"/>
		<line class="st0" x1="233.5" y1="159.4" x2="240.9" y2="119.3"/>
	</g>
</g>
</svg>
