<?xml version="1.0" encoding="utf-8"?>
<!-- Generator: Adobe Illustrator 28.0.0, SVG Export Plug-In . SVG Version: 6.00 Build 0)  -->
<svg version="1.1" xmlns="http://www.w3.org/2000/svg" xmlns:xlink="http://www.w3.org/1999/xlink" x="0px" y="0px"
	 viewBox="0 0 300 300" style="enable-background:new 0 0 300 300;" xml:space="preserve">
<style type="text/css">
	.st0{fill:none;stroke:#ED1B64;stroke-width:10;stroke-linecap:round;stroke-linejoin:round;stroke-miterlimit:10;}
	.st1{fill:#FFFFFF;}
	.st2{fill:#626262;stroke:#ED1B64;stroke-miterlimit:10;}
	.st3{fill:#FFFFFF;stroke:#000000;stroke-miterlimit:10;}
	.st4{fill:#ED1B64;}
</style>
<g id="Layer_2">
</g>
<g id="Layer_1">
	<g>
		<path class="st0" d="M17.9,82.4c83.9-24.8,152.7-38.4,181-29.5c39.1,12.3,67.7,30.4,83.3,62.7c-41.5-31.6-87.7-37.4-136.4-21.5
			c-24.1,7.9-95.8,33.6-95.8,33.6c-8.6,3-18-1.6-20.8-10.3L17.9,82.4z"/>
		<path class="st0" d="M51.5,181.6c74.9,49.5,146.9,44.1,215.9-16.4"/>
		<line class="st0" x1="71.4" y1="193.5" x2="52.6" y2="221.8"/>
		<line class="st0" x1="110.9" y1="209.5" x2="103.4" y2="243.2"/>
		<line class="st0" x1="150.9" y1="215" x2="150.9" y2="249.8"/>
		<line class="st0" x1="190.3" y1="209.5" x2="199.1" y2="242.4"/>
		<line class="st0" x1="230" y1="192.4" x2="248.4" y2="221.8"/>
	</g>
</g>
</svg>
