<?xml version="1.0" encoding="utf-8"?>
<!-- Generator: Adobe Illustrator 28.0.0, SVG Export Plug-In . SVG Version: 6.00 Build 0)  -->
<svg version="1.1" xmlns="http://www.w3.org/2000/svg" xmlns:xlink="http://www.w3.org/1999/xlink" x="0px" y="0px"
	 viewBox="0 0 300 300" style="enable-background:new 0 0 300 300;" xml:space="preserve">
<style type="text/css">
	.st0{fill:none;stroke:#ED1B64;stroke-width:10;stroke-linecap:round;stroke-linejoin:round;stroke-miterlimit:10;}
	.st1{fill:#FFFFFF;}
	.st2{fill:#626262;stroke:#ED1B64;stroke-miterlimit:10;}
	.st3{fill:#FFFFFF;stroke:#000000;stroke-miterlimit:10;}
	.st4{fill:#ED1B64;}
</style>
<g id="Layer_2">
</g>
<g id="Layer_1">
	<g>
		<path class="st0" d="M15.2,195.9c0,0,31.1,1.3,45,0c14-1.3,33.8-8.5,39-4.6s8.3,8.5,7,25c-1.3,16.5,0.7,28.1,12.3,39.3
			s23.7,9.9,23.7,9.9s20.2,2,29-17.6s0.4-36.9-2.9-41.2c-3.3-4.2-2-10.8,1.3-13.8c3.3-2.9,13.4-3.9,22.2-0.2s39.9,2,52.8,1.7
			c12.9-0.4,41,1.1,41,1.1"/>
		<path class="st0" d="M195.3,34.7c-30.7,47.5-59.6,105.5-67.6,153.7c-3.6,21.3-5.1,60.1,14.7,59.2c18.6-0.8,14.9-20,12.1-26.8
			C136.9,176.7,163,107.2,195.3,34.7z"/>
		<path class="st0" d="M234.7,146.2c-16,0-29,13-29,28.9c0-16-13-28.9-28.9-28.9c16,0,28.9-13,28.9-28.9
			C205.7,133.2,218.7,146.2,234.7,146.2z"/>
		<path class="st0" d="M154.5,65c-16,0-29,13-29,28.9c0-16-13-28.9-28.9-28.9c16,0,28.9-13,28.9-28.9C125.5,52,138.5,65,154.5,65z"
			/>
		<path class="st0" d="M112.7,142.1c-18.3,0-33.1,14.8-33.1,33.1c0-18.3-14.8-33.1-33.1-33.1c18.3,0,33.1-14.8,33.1-33.1
			C79.6,127.2,94.4,142.1,112.7,142.1z"/>
	</g>
</g>
</svg>
