<?xml version="1.0" encoding="utf-8"?>
<!-- Generator: Adobe Illustrator 28.0.0, SVG Export Plug-In . SVG Version: 6.00 Build 0)  -->
<svg version="1.1" xmlns="http://www.w3.org/2000/svg" xmlns:xlink="http://www.w3.org/1999/xlink" x="0px" y="0px"
	 viewBox="0 0 300 300" style="enable-background:new 0 0 300 300;" xml:space="preserve">
<style type="text/css">
	.st0{fill:none;stroke:#ED1B64;stroke-width:10;stroke-linecap:round;stroke-linejoin:round;stroke-miterlimit:10;}
	.st1{fill:#FFFFFF;}
	.st2{fill:#626262;stroke:#ED1B64;stroke-miterlimit:10;}
	.st3{fill:#FFFFFF;stroke:#000000;stroke-miterlimit:10;}
	.st4{fill:#ED1B64;}
</style>
<g id="Layer_2">
</g>
<g id="Layer_1">
	<g>
		<path class="st0" d="M274.1,114.5c-2-12.3-7.6-22.1-19.7-27.2c-1.7-0.7-3.3-1.7-4.9-2.7c-6-3.9-9-9.5-8.3-16.7
			c0.7-7.7,1.6-15.5,2.5-23.2c0.8-6.3,1.8-12.7,2.7-19.1H150v3c0,20.9,0,41.7,0,62.5c0,12-1.2,23.9-5,35.3
			c-9.7,29.8-19.7,59.5-29.9,89.1c-2.7,7.8-8.5,12.9-16.7,14.4c-5.1,0.9-10.3,0.6-15.5,0.9c-9.9,0.4-18.4,7.6-20.5,17.4
			c-2,9.7,2.8,19.7,11.6,24c2.1,1,4.5,1.7,6.8,2.5h45.7c0.5-0.2,1.1-0.4,1.6-0.4c27.7-3.8,46.7-18.8,56.7-44.9
			c3.3-8.5,5.4-17.4,9-25.7c10.2-23.5,25.4-41.5,51.8-48.1C265.3,150.5,277.3,134.3,274.1,114.5z"/>
		<path class="st0" d="M81.7,175.8c-6.8-16.6-16.7-31.2-27-46.2c-11.5,17.3-23.7,33.7-29.3,53.9v6.8c0.2,0.5,0.4,1,0.5,1.6
			c3.1,16,18.7,26.5,34.3,23.5C76.9,212.1,89.2,194.1,81.7,175.8z"/>
		<path class="st0" d="M119,105.7c-3-7-6.9-13.7-10.7-20.4c-2.8-4.9-6.2-9.4-9.5-14.3c-7.4,10.6-14.7,20.8-19.5,32.5
			c-1.3,3.2-2.4,6.7-2.4,10.1c0.1,9.5,4.9,16.4,13.6,20c8.6,3.5,16.7,1.9,23.4-4.5C120.6,122.6,122.7,114.4,119,105.7z"/>
	</g>
</g>
</svg>
