<?xml version="1.0" encoding="utf-8"?>
<!-- Generator: Adobe Illustrator 28.0.0, SVG Export Plug-In . SVG Version: 6.00 Build 0)  -->
<svg version="1.1" xmlns="http://www.w3.org/2000/svg" xmlns:xlink="http://www.w3.org/1999/xlink" x="0px" y="0px"
	 viewBox="0 0 300 300" style="enable-background:new 0 0 300 300;" xml:space="preserve">
<style type="text/css">
	.st0{fill:none;stroke:#ED1B64;stroke-width:10;stroke-linecap:round;stroke-linejoin:round;stroke-miterlimit:10;}
	.st1{fill:#FFFFFF;}
	.st2{fill:#626262;stroke:#ED1B64;stroke-miterlimit:10;}
	.st3{fill:#FFFFFF;stroke:#000000;stroke-miterlimit:10;}
	.st4{fill:#ED1B64;}
</style>
<g id="Layer_2">
</g>
<g id="Layer_1">
	<g>
		<path class="st4" d="M245.9,273.8c-4.4-0.3-8.9-0.5-13.2-1.2c-13.6-2.3-24.7-8.9-33-20.1c-5.9-8-8.9-17.2-10.4-27
			c-0.4-2.9,0.6-5.1,2.6-7.1c2.7-2.7,5.4-5.6,7.8-8.6c8.2-10.2,13.7-21.8,16.9-34.5c0.5-2.1,1.7-3.6,3.4-4.8c2.5-1.8,5-3.6,7.1-5.8
			c7-7.3,9.9-16.3,9.6-26.4c-0.1-3.9-1.4-7.4-3.9-10.4c-2.5-3-5.6-4.9-9.2-6.3c-1-0.4-1.4-0.9-1.4-2c0.1-7.2,0.1-14.5,0-21.7
			c0-2-0.1-4.1-0.4-6.1c-1.2-8.5-4.7-16-10-22.7c-18.2-23-48-33.5-76.4-28.7c-17.2,2.9-31.8,10.8-43.5,23.7
			c-9,9.9-13.7,21.7-14,35.1c-0.1,6.9,0,13.8,0,20.7c0,0.9-0.3,1.2-1.1,1.5c-3.2,1.1-6.2,2.7-8.6,5.1c-3.1,3.2-4.4,7.1-4.6,11.4
			c-0.4,8.4,1.4,16.2,6.4,23.2c2.8,3.9,6.4,7.1,10.4,9.8c1.4,0.9,2.5,2.1,2.9,3.9c2,8.4,5.1,16.3,9.4,23.8
			c4.2,7.2,9.3,13.8,15.2,19.6c2.2,2.2,3.4,4.8,2.7,7.9c-0.8,3.9-1.6,7.8-2.8,11.5c-6.3,18.6-19.1,30.1-38.2,34.6
			c-5,1.2-10.2,1.5-15.3,1.6c-2.7,0.1-4.8,1.7-5.1,4.1c-0.4,3.1,0.8,5.2,3.5,5.9c0.8,0.2,1.7,0.3,2.5,0.3c6.1,0,12.2-0.6,18.1-2
			c12.8-3,23.8-9.2,32.4-19.2c7.5-8.7,11.9-18.9,14.4-30c0.3-1.4,0.6-2.7,1-4.2c19.4,10.3,38.6,10.3,57.8,0c0.1,0.4,0.2,0.7,0.3,1.1
			c1.1,5.6,2.6,11,4.8,16.3c5.9,14.4,15.7,25,29.8,31.7c7.2,3.4,14.7,5.4,22.6,6.1c3.4,0.3,6.8,0.3,10.2,0.3c2,0,3.4-1.3,4-3.2
			C251.9,277.2,249.6,274,245.9,273.8z M179.3,57c11.8,2.2,30.1,21.9,31.6,35.1c-10.3-9.2-21.8-16.1-35-20.2
			C178.8,67.2,180,62.3,179.3,57z M94.4,78.7c6.7-9.3,14.7-17.1,25-22.4c7.6-3.9,15.7-6,24.2-6.5c6-0.4,11.9,0.2,17.8,1.1
			c4.2,0.6,7.8,4.8,7.4,9.7c-0.2,2.9-1.2,5.4-3.5,7.2c-1,0.8-2,1.2-3.3,1c-5.9-0.7-11.8-0.9-17.7-0.6c-13.2,0.8-25.5,4.6-37.1,11.1
			c-6.1,3.4-11.7,7.5-17,12.1c-0.3,0.3-0.7,0.6-1.2,1C89.9,87.2,91.5,82.7,94.4,78.7z M176.5,217.6c-8.2,5.9-17.6,8.3-27.7,8.1
			c-11.8-0.1-21.8-4.8-30.6-12.4c-13.1-11.3-21.1-25.6-24.8-42.4c-0.1-0.3-0.2-0.6-0.1-1c0.2-3.2-1.5-5.1-4.1-6.5
			c-3.4-1.7-6.4-3.9-8.9-6.8c-4.6-5.3-6.5-11.6-5.9-18.6c0.3-4,2.6-6.2,6.6-6.8c0.8-0.1,1.5-0.2,2.3-0.3c3.4-0.3,5.2-2.2,5.3-5.6
			c0-2.9,0-5.8,0-8.8c0-0.8,0-1.6,0-2.4c0.1-6.5-0.4-5.4,3.9-9.9c9.4-10.1,20.4-17.7,33.6-22c7.2-2.3,14.6-3.5,22.1-3.7
			c14.2-0.3,27.7,2.7,40.1,9.8c8.6,4.9,16,11.3,22.5,18.8c1.1,1.3,1.2,2.8,1.3,4.4c0,2.2,0,4.5,0,6.7c0,2.3,0,4.6,0,6.9
			c0,3.5,1.8,5.5,5.3,5.8c1.3,0.1,2.6,0.4,3.9,0.7c3,0.9,4.8,3,5,6.1c0.7,10.3-2.9,18.6-12.1,23.9c-4.3,2.5-6.6,5.9-7.6,10.6
			C202.2,191.3,192.2,206.4,176.5,217.6z"/>
		<path class="st4" d="M251.2,160.6c0,19.8,0,39.6,0,59.4c0,0.7,0,1.4-0.1,2.1c-0.4,2.9-2.4,4.7-5.3,4.7c-2.8,0-4.9-1.8-5.2-4.6
			c-0.2-2.1-0.1-4.2-0.2-6.3c0-2.3,0.1-4.6,0.1-6.9c0-13.7,0-27.4,0-41.1h0.1c0-9.2,0.1-18.4,0-27.6c-0.1-8.1,0-16.2-0.4-24.3
			c-1.2-23.6-9.5-44.4-25.6-61.9c-9.5-10.4-20.6-18.5-34.1-23.2c-8.6-3-17.4-4.5-26.4-4.8c-11.4-0.4-22.5,0.9-33.3,4.5
			c-15.5,5.2-28.1,14.5-38.4,27.1c-10.3,12.8-17.3,27.1-20.6,43.2c-1.3,6.4-2,12.9-2,19.5c-0.1,10-0.2,20.1-0.2,30.1
			c0,8.2,0,16.5,0.1,24.7c0,2.8,0.1,5.6,0,8.4c-0.2,3.2-2.3,5.1-5.4,5c-3.1-0.1-5.1-2.1-5.2-5.4c-0.1-4.3,0-8.6-0.1-12.8
			c-0.1-11.2-0.3-22.4-0.2-33.6c0.1-8.7,0.2-17.4,1-26c2.4-25.9,12.3-48.4,30.8-67c10-10.1,21.4-18,34.9-22.8
			c9.3-3.3,18.9-5.1,28.8-5.5c17.7-0.8,34.6,2.2,50.5,10.1c16.9,8.4,29.9,21.1,39.6,37.2c8.7,14.5,14,30.3,16,47.1
			c0.8,7,0.8,13.9,0.7,20.9c-0.1,9.6,0,19.2,0,28.8C251.2,159.9,251.2,160.2,251.2,160.6z"/>
		<path class="st4" d="M59.6,264.6c-0.1,3.7-3.1,6-6.7,5.1c-2.3-0.6-3.8-2.5-3.8-5.2c0-9.5,0-19,0-28.5c0-3.2,2.2-5.4,5.2-5.4
			c3.2,0,5.3,2.1,5.3,5.4c0,4.8,0,9.5,0,14.3C59.6,255,59.7,259.8,59.6,264.6z"/>
		<path class="st4" d="M227,256.1c-0.3,2.6-2.6,4.3-5.3,4.2c-2.7-0.1-4.8-1.9-5-4.5c-0.1-1,0-2.1,0-3.1c0,0,0,0,0,0
			c0-1-0.1-2.1,0-3.1c0.3-2.7,2.2-4.5,4.9-4.5c3.1-0.1,5.1,1.3,5.4,4.2C227.2,251.5,227.2,253.9,227,256.1z"/>
		<path class="st4" d="M74,222.2c-0.2,2.4-2,4.3-4.6,4.6c-1.1,0.1-2.3,0-3.5,0c0,0.1,0,0.1,0,0.2c-1.2-0.1-2.5-0.1-3.6-0.4
			c-2.3-0.6-3.6-2.6-3.6-5.2c0.1-2.4,1.5-4.6,3.8-4.8c2.5-0.3,5.1-0.3,7.6,0C72.8,216.9,74.2,219.2,74,222.2z"/>
		<path class="st4" d="M83.7,233.5c-0.1,1.3-0.1,2.7-0.4,4c-0.6,2.4-2.5,3.7-5.2,3.6c-2.6-0.1-4.5-1.4-4.8-3.9
			c-0.3-2.4-0.3-4.8-0.1-7.1c0.3-2.7,2.6-4.4,5.3-4.3c2.7,0.1,4.8,2,5.1,4.8c0.1,0.9,0,1.9,0,2.9C83.6,233.5,83.6,233.5,83.7,233.5z
			"/>
		<path class="st4" d="M226.9,232.4c-0.3,2.6-2.7,4.1-5.6,3.9c-2.5-0.2-4.5-2-4.7-4.6c-0.1-0.9-0.1-1.9-0.1-2.9c0,0-0.1,0-0.1,0
			c0.2-1.4,0.2-2.7,0.5-4c0.7-2.5,2.7-3.9,5.3-3.8c2.4,0.1,4.4,1.7,4.7,4.1C227.2,227.5,227.2,230,226.9,232.4z"/>
		<path class="st4" d="M217.6,241c-0.1,2.8-2.1,4.7-5.1,4.9c-0.9,0.1-1.8,0-2.8,0v0.1c-1.1-0.1-2.3,0-3.3-0.2
			c-2.7-0.5-4.2-2.5-4.1-5.3c0-2.7,1.7-4.7,4.3-5c2.1-0.2,4.3-0.2,6.5,0C216.1,235.9,217.7,238.1,217.6,241z"/>
		<path class="st4" d="M241.5,240.8c0,2.5-1.1,4-3.5,4.7c-0.6,0.2-1.2,0.3-1.8,0.4c-1,0.1-1.9,0.1-2.9,0.1v-0.1
			c-0.8,0-1.7,0.1-2.5,0c-2.7-0.3-4.6-2.2-4.7-4.6c-0.1-3.1,1.2-5.2,4.1-5.7c2.6-0.5,5.2-0.4,7.7,0.3
			C240.4,236.5,241.5,238.1,241.5,240.8z"/>
		<path class="st4" d="M83.1,213.8c-0.7,2.4-2.2,3.4-5,3.4c-2.5,0-4-1.1-4.6-3.5c-0.2-0.6-0.3-1.2-0.4-1.9c-0.1-0.9-0.1-1.8-0.2-3.1
			c0.1-0.6,0.1-1.6,0.3-2.6c0.6-2.8,2.4-4.2,5.2-4.2c2.7,0,4.6,1.5,5.1,4.3C83.9,208.7,83.8,211.3,83.1,213.8z"/>
		<path class="st4" d="M98,221.5c0,2.5-1.1,4.2-3.6,4.9c-1.3,0.4-2.7,0.4-4.2,0.7c-1.4-0.2-2.9-0.3-4.3-0.7c-2.4-0.7-3.4-2.3-3.3-5
			c0.1-2.3,1.2-3.9,3.5-4.5c2.7-0.7,5.5-0.7,8.2,0C96.7,217.3,97.9,218.9,98,221.5z"/>
		<path class="st4" d="M174,194.7c-0.4,0.8-1,1.5-1.6,2c-6.2,5.4-13.5,8.2-21.4,8.4c-8.8-0.2-16.5-2.5-23-8.1
			c-2.2-1.9-3-4.1-2.1-6.2c1.3-3.2,4.5-4.4,7.6-2.8c1.2,0.7,2.3,1.5,3.5,2.3c4.6,3,9.6,4.5,15.1,4c4.7-0.4,8.8-2.4,12.7-5.2
			c1.1-0.8,2.4-1.6,3.8-2c2.2-0.7,3.8,0.4,5.1,2.1C174.8,191,175.1,192.8,174,194.7z"/>
		<path class="st4" d="M135.7,145c-1.2,1.8-2.8,3.5-4.5,4.9c-3.8,3.2-9.5,5.1-14.8,5.1c-7.3-0.3-13.6-3.3-18.3-9.3
			c-1.9-2.4-1.7-5.2,0.4-7.1c2.1-2,4.9-2.1,7.2-0.1c1,0.8,1.9,1.8,2.9,2.6c5.6,4.6,11.4,4.3,17-0.6c0.9-0.8,1.8-1.6,2.8-2.3
			c2.1-1.3,4.2-1,6.1,0.7C136.4,140.7,137.1,142.9,135.7,145z"/>
		<path class="st4" d="M201.9,145.9c-2.5,3.2-5.6,5.6-9.4,7.2c-2.9,1.2-5.9,1.8-9,1.9c-7.5-0.3-13.7-3.1-18.4-9
			c-2.7-3.3-1-7.7,3.1-8.6c1.9-0.4,3.3,0.5,4.7,1.6c1.3,1.1,2.6,2.3,4,3.2c4.5,3,9.7,2.7,14-0.7c1.1-0.8,2-1.8,3-2.7
			c2.3-2,4.7-2.4,6.9-0.9C203.7,139.8,204.1,143.1,201.9,145.9z"/>
		<path class="st4" d="M203.2,115c0,3.7-2.9,6.1-6.7,5.4c-3.4-0.6-6.9-1.2-10.3-1.9c-4.5-1-8.6,0-12.7,2.1c-1.4,0.8-3,1.3-4.6,1.5
			c-2.1,0.3-3.6-0.9-4.5-2.7c-0.9-1.7-0.8-3.5,0.3-5.1c1.6-2.3,3.9-3.6,6.3-4.8c3.7-1.8,7.8-2.7,11.9-2.8c2.1-0.1,4.2,0.7,6.3,1.1
			c3.4,0.8,6.8,1.5,10.2,2.4C201.9,110.8,203.2,112.6,203.2,115z"/>
		<path class="st4" d="M136.3,116.5c0,4.1-3.6,6.7-6.9,5.5c-0.7-0.2-1.5-0.6-2.1-1.1c-3.5-2.8-7.6-3.5-11.9-2.9
			c-4,0.6-7.9,1.5-11.9,2.3c-4.2,0.8-7.3-2.2-6.6-6.4c0.4-2.3,2.1-3.4,4.2-4c3.2-0.8,6.5-1.5,9.8-2.2c1.2-0.2,2.3-0.4,3.5-0.7
			c4.2-1,8.1,0.2,12,1.3c2.8,0.8,5.3,2.3,7.4,4.2C135.3,113.8,136.3,115.2,136.3,116.5z"/>
	</g>
</g>
</svg>
