<?xml version="1.0" encoding="utf-8"?>
<!-- Generator: Adobe Illustrator 28.0.0, SVG Export Plug-In . SVG Version: 6.00 Build 0)  -->
<svg version="1.1" xmlns="http://www.w3.org/2000/svg" xmlns:xlink="http://www.w3.org/1999/xlink" x="0px" y="0px"
	 viewBox="0 0 300 300" style="enable-background:new 0 0 300 300;" xml:space="preserve">
<style type="text/css">
	.st0{fill:none;stroke:#ED1B64;stroke-width:10;stroke-linecap:round;stroke-linejoin:round;stroke-miterlimit:10;}
	.st1{fill:#FFFFFF;}
	.st2{fill:#626262;stroke:#ED1B64;stroke-miterlimit:10;}
	.st3{fill:#FFFFFF;stroke:#000000;stroke-miterlimit:10;}
	.st4{fill:#ED1B64;}
</style>
<g id="Layer_2">
</g>
<g id="Layer_1">
	<g>
		<path class="st0" d="M109.6,180.5c-32.2-3-50.6,3.2-46.7,24l12.9,65.6c1.4,7.1-4,13.7-11.2,13.7H52.2c-14.4,0-26.1-11.7-26.1-26.1
			V54.4c0-15.8,12.8-28.5,28.5-28.5h54.9"/>
		<line class="st0" x1="109.6" y1="55.4" x2="50.3" y2="55.4"/>
		<line class="st0" x1="109.6" y1="86" x2="50.3" y2="86"/>
		<line class="st0" x1="109.6" y1="116.6" x2="50.3" y2="116.6"/>
		<line class="st0" x1="109.6" y1="147.2" x2="50.3" y2="147.2"/>
		<path class="st0" d="M238.4,99.4l-18.5,78.7l-6,25.3l-18.4,6.8l-10.2,3.8c0,0-10.9,36.6-16.7,48.4c-8.1,16.4-22,24.1-34.8,20
			c-16.3-5.2-27.2-20.5-24.6-40.9c4-31.6,31-42.7,50.6-27.5l11.4-35.9l24.4-76.9l27.2-85.9l13.8,41.6
			C241.1,70.6,241.7,85.3,238.4,99.4z"/>
		<path class="st0" d="M195.5,101.1l-24.4,76.9l-18.5-78.7c-3.3-14.1-2.7-28.8,1.9-42.5l13.8-41.6L195.5,101.1z"/>
		<path class="st0" d="M257.3,282.4c-12.8,4.1-26.7-3.5-34.8-20c-5.8-11.8-16.7-48.4-16.7-48.4l-10.2-3.8l18.4-6.8l6-25.3l11.4,35.9
			c19.6-15.2,46.6-4.1,50.6,27.5C284.5,261.9,273.6,277.2,257.3,282.4z"/>
		<circle class="st0" cx="196.6" cy="177.7" r="8"/>
	</g>
</g>
</svg>
