<?xml version="1.0" encoding="utf-8"?>
<!-- Generator: Adobe Illustrator 28.0.0, SVG Export Plug-In . SVG Version: 6.00 Build 0)  -->
<svg version="1.1" xmlns="http://www.w3.org/2000/svg" xmlns:xlink="http://www.w3.org/1999/xlink" x="0px" y="0px"
	 viewBox="0 0 300 300" style="enable-background:new 0 0 300 300;" xml:space="preserve">
<style type="text/css">
	.st0{fill:none;stroke:#ED1B64;stroke-width:10;stroke-linecap:round;stroke-linejoin:round;stroke-miterlimit:10;}
	.st1{fill:#FFFFFF;}
	.st2{fill:#626262;stroke:#ED1B64;stroke-miterlimit:10;}
	.st3{fill:#FFFFFF;stroke:#000000;stroke-miterlimit:10;}
	.st4{fill:#ED1B64;}
</style>
<g id="Layer_2">
</g>
<g id="Layer_1">
	<g>
		<path class="st0" d="M49.9,281.2H26.4c-4.7,0-8.5-3.8-8.5-8.5v-55.1c0-4.7,3.8-8.5,8.5-8.5h23.5c4.7,0,8.5,3.8,8.5,8.5v55.1
			C58.4,277.4,54.6,281.2,49.9,281.2z"/>
		<path class="st0" d="M58.4,219.6c0,0,2.7,4.4,24.2-7.1c21.4-11.6,37.8-8.9,47.7-6.1c5.3,1.5,16.8,4.9,26.5,7.9
			c8.4,2.6,13,11.6,10.1,19.9v0c-2.7,7.7-11,12-18.9,9.7l-29.6-8.5"/>
		<path class="st0" d="M166.8,234.1l58.4-28.1c6.5-3.1,14.2-0.8,18,5.3v0c3.9,6.3,2.2,14.5-3.9,18.8l-72.7,51.1
			c-6.7,4.7-15.1,6.2-23,4.2l-68.7-17.9l-16.5,0.3"/>
		<path class="st0" d="M165.7,184.2c0,0,61.3-54.5,79-75.2c21.6-25.4,24.2-54.1,6.8-75.9c-22.3-28-54.8-25.7-85.8,0
			c-31-25.7-63.5-28-85.8,0C62.5,54.9,65.1,83.6,86.7,109C104.3,129.8,165.7,184.2,165.7,184.2z"/>
		<polyline class="st0" points="39.7,77 99.3,77 113,98.6 127.2,77 141.1,103.5 165.7,60.6 189.8,103.5 203.4,76.3 218.8,98.6 
			234.1,76.6 290.3,76.6 		"/>
	</g>
</g>
</svg>
