<svg width="20" height="22" viewBox="0 0 20 22" fill="none" xmlns="http://www.w3.org/2000/svg">
<path fill-rule="evenodd" clip-rule="evenodd" d="M18.6665 8.9043H0.842499C0.428499 8.9043 0.0924988 8.5683 0.0924988 8.1543C0.0924988 7.7403 0.428499 7.4043 0.842499 7.4043H18.6665C19.0805 7.4043 19.4165 7.7403 19.4165 8.1543C19.4165 8.5683 19.0805 8.9043 18.6665 8.9043Z" fill="#130F26"/>
<path fill-rule="evenodd" clip-rule="evenodd" d="M14.2012 12.8096C13.7872 12.8096 13.4472 12.4736 13.4472 12.0596C13.4472 11.6456 13.7782 11.3096 14.1922 11.3096H14.2012C14.6152 11.3096 14.9512 11.6456 14.9512 12.0596C14.9512 12.4736 14.6152 12.8096 14.2012 12.8096Z" fill="#130F26"/>
<path fill-rule="evenodd" clip-rule="evenodd" d="M9.7637 12.8096C9.3497 12.8096 9.0097 12.4736 9.0097 12.0596C9.0097 11.6456 9.3407 11.3096 9.7547 11.3096H9.7637C10.1777 11.3096 10.5137 11.6456 10.5137 12.0596C10.5137 12.4736 10.1777 12.8096 9.7637 12.8096Z" fill="#130F26"/>
<path fill-rule="evenodd" clip-rule="evenodd" d="M5.3169 12.8096C4.9029 12.8096 4.5619 12.4736 4.5619 12.0596C4.5619 11.6456 4.8939 11.3096 5.3079 11.3096H5.3169C5.7309 11.3096 6.0669 11.6456 6.0669 12.0596C6.0669 12.4736 5.7309 12.8096 5.3169 12.8096Z" fill="#130F26"/>
<path fill-rule="evenodd" clip-rule="evenodd" d="M14.2012 16.6963C13.7872 16.6963 13.4472 16.3603 13.4472 15.9463C13.4472 15.5323 13.7782 15.1963 14.1922 15.1963H14.2012C14.6152 15.1963 14.9512 15.5323 14.9512 15.9463C14.9512 16.3603 14.6152 16.6963 14.2012 16.6963Z" fill="#130F26"/>
<path fill-rule="evenodd" clip-rule="evenodd" d="M9.7637 16.6963C9.3497 16.6963 9.0097 16.3603 9.0097 15.9463C9.0097 15.5323 9.3407 15.1963 9.7547 15.1963H9.7637C10.1777 15.1963 10.5137 15.5323 10.5137 15.9463C10.5137 16.3603 10.1777 16.6963 9.7637 16.6963Z" fill="#130F26"/>
<path fill-rule="evenodd" clip-rule="evenodd" d="M5.3169 16.6963C4.9029 16.6963 4.5619 16.3603 4.5619 15.9463C4.5619 15.5323 4.8939 15.1963 5.3079 15.1963H5.3169C5.7309 15.1963 6.0669 15.5323 6.0669 15.9463C6.0669 16.3603 5.7309 16.6963 5.3169 16.6963Z" fill="#130F26"/>
<path fill-rule="evenodd" clip-rule="evenodd" d="M13.7935 4.791C13.3795 4.791 13.0435 4.455 13.0435 4.041V0.75C13.0435 0.336 13.3795 0 13.7935 0C14.2075 0 14.5435 0.336 14.5435 0.75V4.041C14.5435 4.455 14.2075 4.791 13.7935 4.791Z" fill="#130F26"/>
<path fill-rule="evenodd" clip-rule="evenodd" d="M5.7153 4.791C5.3013 4.791 4.9653 4.455 4.9653 4.041V0.75C4.9653 0.336 5.3013 0 5.7153 0C6.1293 0 6.4653 0.336 6.4653 0.75V4.041C6.4653 4.455 6.1293 4.791 5.7153 4.791Z" fill="#130F26"/>
<mask id="mask0_5144_4331" style="mask-type:luminance" maskUnits="userSpaceOnUse" x="0" y="1" width="20" height="21">
<path fill-rule="evenodd" clip-rule="evenodd" d="M0 1.5791H19.5V21.5H0V1.5791Z" fill="white"/>
</mask>
<g mask="url(#mask0_5144_4331)">
<path fill-rule="evenodd" clip-rule="evenodd" d="M5.521 3.0791C2.928 3.0791 1.5 4.4621 1.5 6.9731V16.0221C1.5 18.5881 2.928 20.0001 5.521 20.0001H13.979C16.572 20.0001 18 18.6141 18 16.0981V6.9731C18.004 5.7381 17.672 4.7781 17.013 4.1181C16.335 3.4381 15.29 3.0791 13.988 3.0791H5.521ZM13.979 21.5001H5.521C2.116 21.5001 0 19.4011 0 16.0221V6.9731C0 3.6451 2.116 1.5791 5.521 1.5791H13.988C15.697 1.5791 17.11 2.0911 18.075 3.0581C19.012 3.9991 19.505 5.3521 19.5 6.9751V16.0981C19.5 19.4301 17.384 21.5001 13.979 21.5001Z" fill="#130F26"/>
</g>
</svg>
