<?xml version="1.0" encoding="utf-8"?>
<!-- Generator: Adobe Illustrator 25.0.0, SVG Export Plug-In . SVG Version: 6.00 Build 0)  -->
<svg version="1.1" id="Layer_1" xmlns="http://www.w3.org/2000/svg" xmlns:xlink="http://www.w3.org/1999/xlink" x="0px" y="0px"
	 viewBox="0 0 387.95 387.51" style="enable-background:new 0 0 387.95 387.51;" xml:space="preserve">
<style type="text/css">
	.st0{fill:#FEB603;}
	.st1{fill:#FEFEFE;}
	.st2{fill:#FEC025;}
	.st3{fill:#FECF5B;}
	.st4{fill:#FEC536;}
	.st5{fill:#FED05E;}
	.st6{fill:#FEBB15;}
	.st7{fill:#FED368;}
	.st8{fill:#FEC947;}
	.st9{fill:#FED15E;}
	.st10{fill:#FEE4A2;}
	.st11{fill:#FED56E;}
	.st12{fill:#F89200;}
	.st13{fill:#FECB29;}
	.st14{fill:#F4E2A4;}
	.st15{fill:#FEF1D1;}
	.st16{fill:#FEECBF;}
	.st17{fill:#FEDE90;}
	.st18{fill:#FEDC89;}
	.st19{fill:#F78B00;}
</style>
<g>
	<path class="st0" d="M387.4,203.76c0,0,0,0,0,0.01c0.01,1.88,0.09,3.76,0.09,5.63v0.13c0,0.01,0,0.01,0,0.01
		c-0.38,0.42-0.22,1.03-0.26,1.58c0,0,0,0,0,0.01c0,0.22-0.04,0.42-0.2,0.57c0,0.01-0.01,0.02-0.02,0.03v0.01
		c-0.03,0.75-0.01,1.49-0.09,2.23c-1.36,12.07-3.67,23.95-7.18,35.6c-7.7,25.56-20.24,48.49-37.42,68.9
		c-15.2,18.07-33.16,32.83-53.74,44.41c-19.9,11.2-41.18,18.5-63.69,22.16c-13.17,2.14-26.47,2.8-39.82,2.33
		c-1.05,0.01-2.09,0.01-3.14,0c-0.09-0.01-0.19-0.01-0.29-0.01c-0.96-0.05-1.92-0.08-2.88-0.11c0,0-0.01,0-0.02,0
		c-3.11-0.17-6.2-0.54-9.25-1.27c-5.09-0.85-10.21-1.53-15.25-2.6c-15.01-3.17-29.47-8.01-43.34-14.61
		c-29.49-14.06-53.87-34.29-73.27-60.5C23.04,288.56,12.64,266.8,6.4,243.09c-2.66-10.14-4.59-20.41-5.41-30.87
		c-0.06-0.08-0.1-0.16-0.14-0.25c-0.03-0.07-0.05-0.15-0.07-0.22c0-0.02,0-0.04-0.01-0.06c-0.12-0.67,0.12-1.45-0.26-2.03v-0.17
		c0.01-0.63,0.02-1.25,0.03-1.88c0.01-0.45,0.02-0.89,0.03-1.34v-0.03c0.05-2.51,0.03-5.01-0.52-7.49v-10.99
		c0.6-2.43,0.49-4.9,0.5-7.37v-2.53c-0.01-0.42,0-0.84,0-1.26c0-0.47,0.08-0.92,0.45-1.33c-0.13-0.46-0.26-0.92-0.39-1.38
		c0.57-2.85-0.16-5.92,1.46-8.59c2.11-13.39,5.29-26.52,10.15-39.2c16.32-42.65,44.13-75.72,83.31-99.2
		c21.63-12.96,45.07-21,69.99-24.81c2.87-1.34,5.99-1.06,9.02-1.44c1.16-0.01,2.33-0.02,3.49-0.03c0.04-0.02,0.08-0.05,0.12-0.07
		h4.76c0.14-0.01,0.27-0.02,0.4-0.02c0-0.01,0-0.01,0.01,0c0.65-0.04,1.29-0.03,1.94-0.01h0.01c2.26,0.07,4.52,0.3,6.73-0.47h8.5
		c2.84,0.54,5.7,0.53,8.56,0.51c0.28,0,0.56-0.01,0.84,0c0,0,0,0,0.01,0c1.15,0.32,2.5-0.23,3.57,0.47
		c12.36,1.22,24.51,3.56,36.38,7.21c44.63,13.72,79.88,40.09,105.89,78.71c16.8,24.94,26.74,52.55,30.72,82.32
		c0.26,1.17,0.64,2.32,0.83,3.49c0.05,0.51,0.09,1.02,0.12,1.53c0.05,0.64,0.07,1.28,0.03,1.93v2.61c0.01,2.82-0.08,5.65,0.5,8.44
		v9.98c-0.4,1.9-0.53,3.8-0.54,5.71v0.03C387.4,203.25,387.4,203.5,387.4,203.76z"/>
	<path class="st1" d="M0.77,211.69c-0.12-0.67,0.12-1.45-0.26-2.03c-0.1-0.16-0.25-0.31-0.46-0.43c0.19,0.07,0.34,0.16,0.46,0.26
		C1.17,210.03,0.69,210.95,0.77,211.69z"/>
	<path class="st1" d="M169.49,385.98c5.16,0.83,10.4,0.8,15.58,1.39c-1.05,0.01-2.09,0.01-3.14,0c-0.09-0.01-0.19-0.01-0.29-0.01
		c-0.96-0.05-1.92-0.08-2.88-0.11c0,0-0.01,0-0.02,0C175.63,387.08,172.54,386.71,169.49,385.98z"/>
	<path class="st1" d="M387.95,209.23c-0.21,0.08-0.36,0.18-0.46,0.3c0,0.01,0,0.01,0,0.01c-0.38,0.42-0.22,1.03-0.26,1.58
		c0-0.6-0.36-1.34,0.26-1.72C387.6,209.33,387.75,209.27,387.95,209.23z"/>
	<path class="st1" d="M213.48,1.03c-1.09-0.47-2.23-0.1-3.34-0.24c-0.37-0.04-0.9,0.13-1.08-0.23C209,0.45,208.97,0.29,209,0.05
		c0.28,0.27,0.58,0.42,0.9,0.51c0,0,0,0,0.01,0C211.06,0.88,212.41,0.33,213.48,1.03z"/>
	<path class="st1" d="M387.95,178.78c-0.22,0.11-0.38,0.11-0.5,0.05c-0.21-0.1-0.31-0.39-0.45-0.61c0.01-0.63,0.02-1.26,0.03-1.9
		c0.59-2.41-0.51-4.69-0.56-7.05c0.26,1.17,0.64,2.32,0.83,3.49c0.09,0.51,0.14,1.02,0.12,1.53c0.05,0.64,0.07,1.28,0.03,1.93v2.27
		C387.62,178.58,387.79,178.68,387.95,178.78z"/>
	<path class="st1" d="M1,175.27c-0.37,0.74-0.15,1.52-0.21,2.28c0.01,0.08,0,0.16-0.01,0.23c-0.04,0.21-0.11,0.39-0.23,0.48
		c-0.11,0.09-0.27,0.11-0.5,0.02c0.17-0.14,0.33-0.28,0.5-0.42c-0.01-0.42,0-0.84,0-1.26C0.55,176.13,0.63,175.68,1,175.27z"/>
	<path class="st1" d="M0.61,173.89c0.57-2.85-0.16-5.92,1.46-8.59C0.84,168.04,1.77,171.14,0.61,173.89z"/>
	<path class="st1" d="M178.95,0.55c-0.15,0.31-0.59,0.2-0.94,0.24c-0.04,0-0.08,0-0.12,0.01h-3.37c-2.98,0.59-6.06,0.43-9,1.29
		c2.87-1.34,5.99-1.06,9.02-1.44c1.16-0.01,2.33-0.02,3.49-0.03c0.04-0.02,0.08-0.05,0.12-0.07c0.28-0.17,0.57-0.33,0.85-0.5
		C179.03,0.28,179.01,0.44,178.95,0.55z"/>
	<path class="st2" d="M387.95,201.24c-0.4,1.34-0.4,2.67,0,4v3.99c-0.21,0.08-0.36,0.18-0.46,0.3c0,0.01,0,0.01,0,0.01
		c-0.38,0.42-0.22,1.03-0.26,1.58c0,0,0,0,0,0.01c-0.02,0.21-0.07,0.4-0.2,0.57c0,0.01-0.01,0.02-0.02,0.03
		c0.14-4.85-0.92-9.75,0.94-14.48V201.24z"/>
	<path class="st3" d="M213.48,1.03c-4.35,0.02-8.74,0.48-12.98-0.98h8.5c0.28,0.27,0.58,0.42,0.9,0.51c0,0,0,0,0.01,0
		C211.06,0.88,212.41,0.33,213.48,1.03z"/>
	<path class="st4" d="M0.99,212.22c-0.06-0.08-0.1-0.16-0.14-0.25c-0.03-0.07-0.05-0.15-0.07-0.22c0-0.02,0-0.04-0.01-0.06
		c-0.12-0.67,0.12-1.45-0.26-2.03c-0.1-0.16-0.25-0.31-0.46-0.43v-1c0.52-0.94,0.12-1.96,0.25-2.93v-0.04
		c-0.02-0.09-0.02-0.18-0.02-0.27c-0.02-0.75,0.22-1.54-0.23-2.25v-3.99C1.84,203.13,0.91,207.71,0.99,212.22z"/>
	<path class="st5" d="M387.95,178.78v8.49c-1.17-2.93-0.99-5.99-0.95-9.05c0.15,0.09,0.3,0.18,0.45,0.27
		C387.62,178.58,387.79,178.68,387.95,178.78z"/>
	<path class="st6" d="M192,0.05c-0.83,1.31-2.17,0.97-3.37,0.98c-1.9,0.03-3.8-0.02-5.7-0.03c0.85-1.58,2.53-0.08,3.57-0.95
		C188.34,0.05,190.17,0.05,192,0.05z"/>
	<path class="st7" d="M186.5,0.05c-0.07,0.06-0.14,0.11-0.21,0.14c-0.32,0.21-0.66,0.29-1.02,0.33h-0.01
		c-0.79,0.1-1.64,0.01-2.33,0.48c-1.65-0.01-3.3-0.01-4.95-0.02c-0.08-0.06-0.16-0.12-0.24-0.18c-0.02-0.01-0.05-0.03-0.07-0.05
		c0.12-0.04,0.24-0.09,0.36-0.13c0.04-0.02,0.08-0.05,0.12-0.07c0.28-0.17,0.57-0.33,0.85-0.5H186.5z"/>
	<path class="st8" d="M0.98,180.24c0.09,2.56,0.22,5.12-0.94,7.52c0-2.5,0-4.99,0-7.49C0.35,179.98,0.66,179.97,0.98,180.24z"/>
	<path class="st7" d="M0.98,177.76v2.49c-0.14,0-0.29,0.01-0.43,0.01c-0.17,0.01-0.33,0.01-0.5,0.02v-2
		c0.17-0.14,0.33-0.28,0.5-0.42c0.02-0.02,0.05-0.04,0.07-0.06c0.04-0.18,0.1-0.25,0.17-0.25C0.84,177.56,0.9,177.63,0.98,177.76z"
		/>
	<path class="st9" d="M387.95,205.23c-0.88-1.33-0.63-2.66,0-3.99C387.95,202.57,387.95,203.9,387.95,205.23z"/>
	<path class="st10" d="M0.5,205.27c-0.1,0.99,0.64,2.12-0.46,2.96c0-1,0-2,0-3C0.23,204.89,0.38,204.9,0.5,205.27z"/>
	<path class="st11" d="M0.5,205.27c-0.15-0.01-0.3-0.02-0.46-0.04c0-0.83,0-1.66,0-2.5C0.65,203.5,0.56,204.39,0.5,205.27z"/>
	<path class="st12" d="M345.46,193.87c-0.3,83.61-67.68,151.23-151.71,151.1c-83.53-0.13-151.47-67.52-151.18-151.84
		c0.28-83.19,67.77-150.94,152.17-150.6C277.94,42.86,345.26,110.05,345.46,193.87z"/>
	<path class="st13" d="M373.47,200.43c-0.5,19.61-4.27,38.57-11.1,56.96c-4.71,12.68-10.71,24.72-18.14,36.01
		c-9.66,14.66-21.23,27.65-34.69,38.98c-10.56,8.89-22.02,16.37-34.26,22.66c-4.65,2.39-9.39,4.69-14.36,6.39
		c-3.71,1.27-7.58-0.55-9.02-4.12c-1.5-3.73,0.04-7.75,3.79-9.37c9.41-4.07,18.6-8.54,27.22-14.11
		c7.63-4.93,14.76-10.48,21.59-16.47c6.77-5.95,12.85-12.53,18.45-19.55c7.75-9.71,14.32-20.18,19.71-31.39
		c4.41-9.17,7.97-18.65,10.61-28.46c2.23-8.27,3.9-16.65,4.71-25.19c0.56-5.95,0.98-11.9,1.05-17.89c0.05-4.25,3.3-7.18,7.41-7.11
		c4.21,0.08,6.98,2.99,7.03,7.43C373.49,196.94,373.47,198.68,373.47,200.43z"/>
	<path class="st13" d="M107.71,51.96c-3.26-0.04-5.9-2.04-6.84-5.21c-0.95-3.19,0.25-6.46,3.14-8.22
		c8.98-5.49,18.56-9.74,28.4-13.37c11.35-4.19,23.05-7.15,35.01-8.94c8.8-1.32,17.68-1.98,26.6-1.71c4.19,0.13,7.36,3.14,7.43,7.18
		c0.06,3.75-3.4,7.17-7.42,7.31c-3.65,0.13-7.3,0.19-10.96,0.41c-23.39,1.38-45.31,7.85-66.04,18.58c-1.85,0.96-3.64,2.01-5.49,2.96
		C110.34,51.56,109.08,51.99,107.71,51.96z"/>
	<path class="st13" d="M14.53,198.94c0-1.75-0.02-3.49,0-5.24c0.06-4.17,3.18-7.35,7.21-7.38c3.52-0.02,7.15,3.54,7.27,7.26
		c0.13,3.81,0.2,7.62,0.44,11.44c1.07,16.98,4.84,33.31,11.04,49.13c2.46,6.29,5.5,12.28,8.45,18.34c2.4,4.92-0.04,9.76-5.3,10.83
		c-2.56,0.52-5.75-0.91-7.35-3.63c-3.91-6.68-7.02-13.76-9.81-20.98c-4.35-11.27-7.64-22.86-9.63-34.78
		C15.49,215.66,14.5,207.34,14.53,198.94z"/>
	<path class="st13" d="M86.54,65.02c-0.14,2.31-0.93,4.12-2.48,5.69c-4.6,4.68-9.4,9.16-13.78,14.08
		c-5.48,6.17-10.34,12.78-14.94,19.6c-2.88,4.26-8.31,4.6-11.75,0.79c-2.08-2.31-2.23-6.19-0.22-9.27
		c3.9-5.99,8.11-11.77,12.73-17.23c5.53-6.53,11.27-12.87,17.84-18.41c2.54-2.14,5.29-2.91,8.28-1.4
		C84.71,60.14,86.29,62.26,86.54,65.02z"/>
	<path class="st14" d="M185.07,387.37c-1.05,0.01-2.09,0.01-3.14,0c-0.09-0.01-0.19-0.01-0.29-0.01c-0.96-0.05-1.92-0.08-2.88-0.11
		c0,0-0.01,0-0.02,0c-3.11-0.17-6.2-0.54-9.25-1.27C174.69,386.37,179.93,386.31,185.07,387.37z"/>
	<path class="st15" d="M2.07,165.3c-0.52,2.86,0.03,5.89-1.46,8.59C1.18,171.04,0.45,167.97,2.07,165.3z"/>
	<path class="st16" d="M174.73,0.92c-0.07,0.08-0.14,0.12-0.22,0.12c-3,0.35-6,0.7-8.99,1.05c2.87-1.34,5.99-1.06,9.02-1.44
		c0.11,0.05,0.18,0.11,0.21,0.15C174.77,0.85,174.77,0.88,174.73,0.92z"/>
	<path class="st14" d="M387.42,174.29c-0.01,0.66-0.12,1.35-0.39,2.03c-0.05-2.36-0.94-4.65-0.56-7.05
		c0.26,1.17,0.64,2.32,0.83,3.49C387.39,173.27,387.44,173.78,387.42,174.29z"/>
	<path class="st17" d="M178.03,0.62c-0.01,0.06-0.02,0.11-0.02,0.17c-0.01,0.06-0.02,0.13-0.03,0.19c-1.16,0.02-2.32,0.04-3.47,0.06
		c0-0.08,0-0.16,0.02-0.24c0-0.05,0-0.1,0.01-0.15C175.7,0.64,176.87,0.63,178.03,0.62z"/>
	<path class="st18" d="M1,175.27c-0.01,0.83-0.02,1.66-0.02,2.49c-0.07,0.01-0.13,0.01-0.2,0.02c-0.05,0.01-0.11,0.02-0.16,0.02
		c-0.01-0.4-0.07-0.8-0.07-1.2C0.55,176.13,0.63,175.68,1,175.27z"/>
	<path class="st13" d="M67.03,193.65c0.09-70.01,56.96-126.74,127.06-126.7c70.21,0.04,127.04,56.99,126.86,127.13
		c-0.18,69.82-56.95,126.64-127.3,126.45C123.81,320.35,67.06,263.75,67.03,193.65z"/>
	<path class="st12" d="M194.03,259.65c-19.49,0-38.99-0.05-58.48,0.05c-2.75,0.01-4.06-0.99-4.8-3.55
		c-7.44-25.72-14.94-51.43-22.43-77.13c-1.42-4.87-2.9-9.72-4.33-14.59c-0.44-1.51-1.11-3.15,0.25-4.47c1.44-1.4,3.01-0.4,4.41,0.22
		c14.93,6.58,29.84,13.2,44.75,19.81c3.06,1.36,3.78,1.17,5.61-1.49c10.49-15.2,20.98-30.4,31.47-45.6
		c0.38-0.55,0.78-1.08,1.21-1.59c1.66-1.95,3.14-2.02,4.66,0.08c3.8,5.26,7.47,10.61,11.16,15.95c7.29,10.54,14.58,21.07,21.8,31.65
		c1.29,1.89,2.74,2.15,4.7,1.28c14.83-6.59,29.67-13.16,44.51-19.73c0.53-0.24,1.06-0.5,1.6-0.69c1.26-0.45,2.54-1,3.74,0.13
		c1.18,1.11,0.81,2.35,0.42,3.69c-6.97,23.78-13.92,47.57-20.87,71.35c-2.08,7.1-4.22,14.19-6.22,21.31
		c-0.7,2.51-2.07,3.38-4.68,3.37C233.02,259.61,213.53,259.65,194.03,259.65z"/>
	<path class="st19" d="M254.67,258.79c-2.62,0.44-118.23,0.48-120.77,0C173.97,258.79,214.03,258.79,254.67,258.79z"/>
</g>
</svg>
