<svg width="24" height="24" viewBox="0 0 24 24" fill="none" xmlns="http://www.w3.org/2000/svg">
<path d="M4.75003 13.97C4.61003 15.6 5.90003 17 7.54003 17H18.19C19.63 17 20.89 15.82 21 14.39L21.54 6.89001C21.66 5.23001 20.4 3.88 18.73 3.88H5.82004" stroke="#181214" stroke-width="1.5" stroke-miterlimit="10" stroke-linecap="round" stroke-linejoin="round"/>
<path d="M2 2H3.74001C4.82001 2 5.67 2.93 5.58 4L5.08 10.05" stroke="#181214" stroke-width="1.5" stroke-miterlimit="10" stroke-linecap="round" stroke-linejoin="round"/>
<path d="M16.25 22C16.9404 22 17.5 21.4404 17.5 20.75C17.5 20.0596 16.9404 19.5 16.25 19.5C15.5596 19.5 15 20.0596 15 20.75C15 21.4404 15.5596 22 16.25 22Z" stroke="#181214" stroke-width="1.5" stroke-miterlimit="10" stroke-linecap="round" stroke-linejoin="round"/>
<path d="M8.25 22C8.94036 22 9.5 21.4404 9.5 20.75C9.5 20.0596 8.94036 19.5 8.25 19.5C7.55964 19.5 7 20.0596 7 20.75C7 21.4404 7.55964 22 8.25 22Z" stroke="#181214" stroke-width="1.5" stroke-miterlimit="10" stroke-linecap="round" stroke-linejoin="round"/>
<path d="M9 8H21" stroke="#181214" stroke-width="1.5" stroke-miterlimit="10" stroke-linecap="round" stroke-linejoin="round"/>
</svg>
